<svg class="h-6 h-6" viewBox="0 0 204 37" fill="none" xmlns="http://www.w3.org/2000/svg">
    <path
        d="M47.698 25c-.393 0-.697-.108-.912-.323-.215-.228-.323-.538-.323-.931V12.783c0-.405.101-.71.304-.912.215-.215.52-.323.912-.323.393 0 .69.108.893.323.215.203.323.507.323.912v10.146h5.51c.342 0 .602.089.779.266.19.177.285.43.285.76s-.095.589-.285.779c-.177.177-.437.266-.78.266h-6.706ZM60.533 25.19c-.672 0-1.273-.127-1.805-.38a3.273 3.273 0 0 1-1.235-1.064 2.673 2.673 0 0 1-.437-1.501c0-.684.177-1.222.532-1.615.355-.405.93-.697 1.729-.874.798-.177 1.868-.266 3.21-.266h.95v1.368h-.93c-.785 0-1.412.038-1.881.114-.469.076-.804.209-1.007.399-.19.177-.285.43-.285.76 0 .418.145.76.437 1.026.291.266.697.399 1.216.399a2.1 2.1 0 0 0 1.102-.285c.33-.203.589-.475.779-.817.19-.342.285-.735.285-1.178v-2.185c0-.633-.14-1.09-.418-1.368-.279-.279-.747-.418-1.406-.418a5.96 5.96 0 0 0-1.197.133c-.418.089-.861.24-1.33.456-.24.114-.456.146-.646.095a.727.727 0 0 1-.418-.304.997.997 0 0 1-.152-.532c0-.19.05-.374.152-.551.101-.19.272-.33.513-.418a8.621 8.621 0 0 1 1.672-.513 8.173 8.173 0 0 1 1.482-.152c.912 0 1.66.14 2.242.418a2.764 2.764 0 0 1 1.33 1.273c.291.557.437 1.28.437 2.166v4.56c0 .393-.095.697-.285.912-.19.203-.462.304-.817.304-.355 0-.634-.101-.836-.304-.19-.215-.285-.52-.285-.912v-.912h.152a2.574 2.574 0 0 1-1.501 1.9 3.246 3.246 0 0 1-1.35.266ZM69.65 25.152c-.392 0-.696-.101-.912-.304-.202-.215-.303-.52-.303-.912v-7.182c0-.393.1-.69.303-.893.203-.203.488-.304.856-.304.367 0 .652.101.855.304.202.203.303.5.303.893v1.197h-.19c.178-.76.526-1.336 1.046-1.729.519-.393 1.21-.627 2.07-.703.267-.025.475.044.627.209.165.152.26.393.285.722.026.317-.05.576-.228.779-.164.19-.417.304-.76.342l-.418.038c-.772.076-1.355.317-1.748.722-.392.393-.589.95-.589 1.672v3.933c0 .393-.1.697-.303.912-.203.203-.5.304-.894.304ZM79.411 25.19c-.671 0-1.273-.127-1.805-.38a3.273 3.273 0 0 1-1.235-1.064 2.673 2.673 0 0 1-.437-1.501c0-.684.178-1.222.532-1.615.355-.405.931-.697 1.73-.874.797-.177 1.867-.266 3.21-.266h.95v1.368h-.93c-.786 0-1.413.038-1.882.114-.468.076-.804.209-1.007.399-.19.177-.285.43-.285.76 0 .418.146.76.437 1.026.291.266.697.399 1.216.399a2.1 2.1 0 0 0 1.102-.285c.33-.203.59-.475.78-.817.19-.342.284-.735.284-1.178v-2.185c0-.633-.14-1.09-.418-1.368-.279-.279-.747-.418-1.406-.418a5.96 5.96 0 0 0-1.197.133c-.418.089-.861.24-1.33.456-.24.114-.456.146-.646.095a.727.727 0 0 1-.418-.304.997.997 0 0 1-.152-.532c0-.19.05-.374.152-.551.101-.19.272-.33.513-.418a8.621 8.621 0 0 1 1.672-.513 8.173 8.173 0 0 1 1.482-.152c.912 0 1.66.14 2.242.418a2.764 2.764 0 0 1 1.33 1.273c.291.557.437 1.28.437 2.166v4.56c0 .393-.095.697-.285.912-.19.203-.462.304-.817.304-.355 0-.633-.101-.836-.304-.19-.215-.285-.52-.285-.912v-.912h.152a2.574 2.574 0 0 1-1.501 1.9 3.246 3.246 0 0 1-1.349.266ZM90.982 25.152c-.317 0-.595-.082-.836-.247-.228-.165-.418-.418-.57-.76l-3.021-7.011a1.608 1.608 0 0 1-.133-.779.841.841 0 0 1 .342-.57c.203-.152.475-.228.817-.228.291 0 .526.07.703.209.177.127.336.374.475.741l2.565 6.403h-.57l2.641-6.422c.14-.355.298-.595.475-.722.19-.14.443-.209.76-.209.279 0 .5.076.665.228.165.14.266.33.304.57.038.228-.006.481-.133.76l-3.078 7.03c-.14.342-.33.595-.57.76-.228.165-.507.247-.836.247ZM102.203 25.19c-1.051 0-1.957-.196-2.717-.589a4.248 4.248 0 0 1-1.767-1.672c-.405-.722-.608-1.577-.608-2.565 0-.963.196-1.805.589-2.527a4.418 4.418 0 0 1 1.653-1.691c.709-.418 1.514-.627 2.413-.627.659 0 1.248.108 1.767.323.532.215.982.526 1.349.931.38.405.665.9.855 1.482.203.57.304 1.216.304 1.938a.632.632 0 0 1-.247.532c-.152.114-.374.171-.665.171h-6.1v-1.368h5.34l-.304.285c0-.583-.089-1.07-.266-1.463a1.858 1.858 0 0 0-.741-.893c-.317-.215-.716-.323-1.197-.323-.532 0-.988.127-1.368.38-.367.24-.652.589-.855 1.045-.19.443-.285.975-.285 1.596v.133c0 1.039.24 1.818.722 2.337.494.507 1.216.76 2.166.76a6.03 6.03 0 0 0 1.102-.114 4.246 4.246 0 0 0 1.178-.437c.266-.152.5-.215.703-.19a.665.665 0 0 1 .475.209.797.797 0 0 1 .228.475.894.894 0 0 1-.114.551c-.089.19-.247.355-.475.494a5.088 5.088 0 0 1-1.539.627 7.38 7.38 0 0 1-1.596.19ZM111.665 25.19c-1.052 0-1.843-.298-2.375-.893-.532-.608-.798-1.495-.798-2.66V12.65c0-.393.101-.69.304-.893.202-.203.494-.304.874-.304s.671.101.874.304c.215.203.323.5.323.893v8.873c0 .583.12 1.013.361 1.292.253.279.608.418 1.064.418h.285l.266-.038c.177-.025.297.025.361.152.063.114.095.355.095.722 0 .317-.064.564-.19.741-.127.177-.336.285-.627.323l-.399.038c-.14.013-.279.019-.418.019ZM125.702 25.19c-.557 0-1.114-.044-1.672-.133a8.695 8.695 0 0 1-1.577-.361 6.494 6.494 0 0 1-1.33-.646 1.228 1.228 0 0 1-.57-1.178c.038-.215.121-.399.247-.551a.87.87 0 0 1 .513-.304c.203-.038.425.019.665.171a6.51 6.51 0 0 0 1.767.722 8.203 8.203 0 0 0 1.957.228c1.001 0 1.729-.165 2.185-.494.456-.342.684-.779.684-1.311 0-.443-.164-.792-.494-1.045-.316-.253-.867-.462-1.653-.627l-2.09-.437c-1.203-.253-2.102-.678-2.698-1.273-.582-.608-.874-1.406-.874-2.394 0-.62.127-1.184.38-1.691a3.93 3.93 0 0 1 1.064-1.311 4.965 4.965 0 0 1 1.653-.836 7.083 7.083 0 0 1 2.128-.304c.76 0 1.482.095 2.166.285.684.19 1.299.469 1.843.836.203.14.336.31.399.513.076.203.095.405.057.608a.943.943 0 0 1-.266.494.87.87 0 0 1-.532.247c-.202.025-.437-.038-.703-.19a5.39 5.39 0 0 0-1.425-.57c-.481-.114-1-.171-1.558-.171-.582 0-1.083.082-1.501.247-.418.165-.741.399-.969.703-.215.291-.323.64-.323 1.045 0 .456.152.823.456 1.102.304.266.824.475 1.558.627l2.071.437c1.254.266 2.185.684 2.793 1.254.621.57.931 1.33.931 2.28a3.56 3.56 0 0 1-.38 1.653 3.51 3.51 0 0 1-1.064 1.273c-.456.355-1.007.627-1.653.817-.646.19-1.374.285-2.185.285ZM136.473 25.19c-.672 0-1.273-.127-1.805-.38a3.267 3.267 0 0 1-1.235-1.064 2.667 2.667 0 0 1-.437-1.501c0-.684.177-1.222.532-1.615.354-.405.931-.697 1.729-.874.798-.177 1.868-.266 3.211-.266h.95v1.368h-.931c-.786 0-1.413.038-1.881.114-.469.076-.805.209-1.007.399-.19.177-.285.43-.285.76 0 .418.145.76.437 1.026.291.266.696.399 1.216.399.418 0 .785-.095 1.102-.285.329-.203.589-.475.779-.817.19-.342.285-.735.285-1.178v-2.185c0-.633-.14-1.09-.418-1.368-.279-.279-.748-.418-1.406-.418a5.95 5.95 0 0 0-1.197.133 6.37 6.37 0 0 0-1.33.456c-.241.114-.456.146-.646.095a.724.724 0 0 1-.418-.304.991.991 0 0 1-.152-.532c0-.19.05-.374.152-.551.101-.19.272-.33.513-.418a8.607 8.607 0 0 1 1.672-.513 8.16 8.16 0 0 1 1.482-.152c.912 0 1.659.14 2.242.418a2.769 2.769 0 0 1 1.33 1.273c.291.557.437 1.28.437 2.166v4.56c0 .393-.095.697-.285.912-.19.203-.463.304-.817.304-.355 0-.634-.101-.836-.304-.19-.215-.285-.52-.285-.912v-.912h.152a2.64 2.64 0 0 1-.532 1.159 2.585 2.585 0 0 1-.969.741 3.25 3.25 0 0 1-1.349.266ZM145.552 25.152c-.38 0-.671-.101-.874-.304-.202-.215-.304-.52-.304-.912v-7.182c0-.393.102-.69.304-.893.203-.203.488-.304.855-.304.368 0 .653.101.855.304.203.203.304.5.304.893v1.292l-.209-.475c.279-.671.71-1.178 1.292-1.52.596-.355 1.267-.532 2.014-.532.748 0 1.362.14 1.843.418.482.279.843.703 1.083 1.273.241.557.361 1.267.361 2.128v4.598c0 .393-.101.697-.304.912-.202.203-.494.304-.874.304s-.677-.101-.893-.304c-.202-.215-.304-.52-.304-.912v-4.484c0-.722-.139-1.248-.418-1.577-.266-.33-.684-.494-1.254-.494-.696 0-1.254.222-1.672.665-.405.43-.608 1.007-.608 1.729v4.161c0 .81-.399 1.216-1.197 1.216ZM159.631 25.19c-.811 0-1.527-.196-2.147-.589-.608-.393-1.083-.95-1.425-1.672-.342-.735-.513-1.596-.513-2.584 0-1 .171-1.856.513-2.565.342-.722.817-1.28 1.425-1.672.62-.393 1.336-.589 2.147-.589.772 0 1.444.19 2.014.57.582.38.975.88 1.178 1.501h-.209v-4.94c0-.393.101-.69.304-.893.202-.203.494-.304.874-.304s.671.101.874.304c.215.203.323.5.323.893v11.286c0 .393-.102.697-.304.912-.203.203-.494.304-.874.304s-.672-.101-.874-.304c-.203-.215-.304-.52-.304-.912v-1.482l.209.57a2.786 2.786 0 0 1-1.159 1.577c-.583.393-1.267.589-2.052.589Zm.665-1.805c.468 0 .88-.114 1.235-.342.354-.228.627-.564.817-1.007.202-.456.304-1.02.304-1.691 0-1.013-.216-1.767-.646-2.261-.431-.507-1.001-.76-1.71-.76-.469 0-.881.114-1.235.342-.355.215-.634.551-.836 1.007-.19.443-.285 1-.285 1.672 0 1 .215 1.76.646 2.28.43.507 1 .76 1.71.76ZM173.379 25.19c-.785 0-1.475-.196-2.071-.589a2.786 2.786 0 0 1-1.159-1.577l.209-.475v1.387c0 .393-.101.697-.304.912-.202.203-.487.304-.855.304-.38 0-.671-.101-.874-.304-.202-.215-.304-.52-.304-.912V12.65c0-.393.102-.69.304-.893.203-.203.494-.304.874-.304s.672.101.874.304c.216.203.323.5.323.893v4.94h-.228c.203-.62.596-1.121 1.178-1.501.583-.38 1.261-.57 2.033-.57.824 0 1.539.196 2.147.589.608.393 1.083.95 1.425 1.672.342.71.513 1.564.513 2.565 0 .988-.171 1.85-.513 2.584-.342.722-.823 1.28-1.444 1.672-.608.393-1.317.589-2.128.589Zm-.665-1.805c.469 0 .881-.114 1.235-.342.355-.228.627-.564.817-1.007.203-.456.304-1.02.304-1.691 0-1.013-.215-1.767-.646-2.261-.43-.507-1-.76-1.71-.76-.468 0-.88.114-1.235.342-.354.215-.633.551-.836 1.007-.19.443-.285 1-.285 1.672 0 1 .216 1.76.646 2.28.431.507 1.001.76 1.71.76ZM184.221 25.19c-.963 0-1.799-.196-2.508-.589a4.112 4.112 0 0 1-1.653-1.672c-.393-.735-.589-1.596-.589-2.584 0-.747.107-1.412.323-1.995a4.285 4.285 0 0 1 .969-1.52c.418-.43.918-.754 1.501-.969.582-.228 1.235-.342 1.957-.342.962 0 1.798.196 2.508.589.709.393 1.26.95 1.653 1.672.392.722.589 1.577.589 2.565 0 .747-.114 1.419-.342 2.014a4.268 4.268 0 0 1-.95 1.539 4.326 4.326 0 0 1-1.501.969c-.583.215-1.235.323-1.957.323Zm0-1.805c.468 0 .88-.114 1.235-.342.354-.228.627-.564.817-1.007.202-.456.304-1.02.304-1.691 0-1.013-.216-1.767-.646-2.261-.431-.507-1.001-.76-1.71-.76-.469 0-.881.114-1.235.342-.355.215-.634.551-.836 1.007-.19.443-.285 1-.285 1.672 0 1 .215 1.76.646 2.28.43.507 1 .76 1.71.76ZM191.906 25.095c-.279 0-.513-.076-.703-.228a.877.877 0 0 1-.285-.627c0-.253.107-.52.323-.798l3.078-3.8v1.121l-2.888-3.553c-.228-.279-.336-.545-.323-.798a.813.813 0 0 1 .285-.608c.19-.165.424-.247.703-.247.291 0 .532.05.722.152.202.101.386.26.551.475l2.28 2.926h-.836l2.299-2.926a1.87 1.87 0 0 1 .551-.475c.19-.101.424-.152.703-.152.291 0 .525.082.703.247a.82.82 0 0 1 .266.627c.012.253-.095.52-.323.798l-2.869 3.515V19.68l3.078 3.762c.228.266.335.526.323.779a.855.855 0 0 1-.304.627c-.178.165-.412.247-.703.247-.279 0-.513-.05-.703-.152a1.87 1.87 0 0 1-.551-.475l-2.47-3.116h.798l-2.451 3.116a2.06 2.06 0 0 1-.532.475c-.19.101-.431.152-.722.152Z"
        fill="#000"
        class="fill-current text-gray-600 dark:text-white"/>
    <path
        d="M24.494 22.457a10.017 10.017 0 0 1-9.751 12.323v-8.015m9.751-4.308A25.012 25.012 0 0 0 34.78 2.22a25.013 25.013 0 0 0-20.236 10.286m9.95 9.951a24.915 24.915 0 0 1-9.751 4.308m0 0c-.172.035-.346.069-.52.1a25.195 25.195 0 0 1-4.087-4.087c.032-.174.064-.348.099-.521m4.31-9.751a10.018 10.018 0 0 0-12.325 9.75h8.015m4.31-9.75a24.928 24.928 0 0 0-4.31 9.75"
        stroke="#177AD5" stroke-width="2" stroke-linecap="round" stroke-linejoin="round" />
    <path d="M6.496 26.248a7.502 7.502 0 0 0-2.934 7.19 7.502 7.502 0 0 0 7.19-2.936" stroke="#F05100" stroke-width="2"
        stroke-linecap="round" stroke-linejoin="round" />
    <path d="M25.28 15.262a2.505 2.505 0 1 0-3.542-3.542 2.505 2.505 0 0 0 3.542 3.542Z" stroke="#177AD5"
        stroke-width="2" stroke-linecap="round" stroke-linejoin="round" />
</svg>
